<?xml version="1.0" encoding="UTF-8"?>
<svg version="1.1" xmlns="http://www.w3.org/2000/svg" width="500" height="500">
<path d="M0 0 C165 0 330 0 500 0 C500 165 500 330 500 500 C335 500 170 500 0 500 C0 335 0 170 0 0 Z " fill="#1A1966" transform="translate(0,0)"/>
<path d="M0 0 C0.68320313 0.33902344 1.36640625 0.67804688 2.0703125 1.02734375 C15.36486147 8.35237956 22.48262582 22.78784557 27.75390625 36.36328125 C28.17821426 37.44064041 28.60252228 38.51799957 29.03968811 39.62800598 C33.53458427 51.16286004 37.62872203 62.83635568 41.67364502 74.53503418 C42.970371 78.28249522 44.27521588 82.02706985 45.58349609 85.77050781 C45.8018512 86.39536009 46.0202063 87.02021236 46.24517822 87.66399956 C46.89910787 89.53512176 47.55306945 91.40623279 48.20703125 93.27734375 C49.0450944 95.67821925 49.88314812 98.07909804 50.72119141 100.47998047 C67.46507771 153.98815319 67.46507771 153.98815319 105.125 192.8125 C111.89098659 196.06239192 117.43405991 197.28895292 124.875 197.125 C125.65875 197.11597656 126.4425 197.10695313 127.25 197.09765625 C129.16680055 197.07428063 131.08344191 197.03841653 133 197 C133 197.99 133 198.98 133 200 C127.33687877 201.84666997 121.9369183 202.61641056 116 203 C115.13246094 203.07734375 114.26492188 203.1546875 113.37109375 203.234375 C99.25406757 203.97413183 88.11126966 196.41530042 78 187.34375 C54.70107891 165.66255129 45.97439828 134.18042049 36 105 C16.86 105 -2.28 105 -22 105 C-24.31 110.754375 -26.62 116.50875 -29 122.4375 C-29.73089844 124.23501709 -30.46179688 126.03253418 -31.21484375 127.88452148 C-31.79028144 129.33789688 -32.36457489 130.79172605 -32.9375 132.24609375 C-33.39092773 133.34298523 -33.39092773 133.34298523 -33.85351562 134.46203613 C-35.86289603 139.62132537 -36.79270469 144.45714918 -36 150 C-33.96194385 153.01934244 -32.74780317 153.79605368 -29.25 154.75 C-28.5075 154.8325 -27.765 154.915 -27 155 C-27 155.66 -27 156.32 -27 157 C-40.86 157 -54.72 157 -69 157 C-69 156.34 -69 155.68 -69 155 C-68.35933594 154.85304688 -67.71867188 154.70609375 -67.05859375 154.5546875 C-65.76115234 154.21824219 -65.76115234 154.21824219 -64.4375 153.875 C-63.16712891 153.56175781 -63.16712891 153.56175781 -61.87109375 153.2421875 C-54.2035437 149.9247985 -50.68431074 144.45082682 -47.61328125 136.953125 C-47.23746414 136.07763 -46.86164703 135.20213501 -46.47444153 134.30010986 C-45.29664501 131.5412331 -44.14647839 128.77201812 -43 126 C-42.27594842 124.27769169 -41.55118979 122.55568044 -40.82568359 120.83398438 C-38.97598274 116.42197216 -37.15453544 111.99883683 -35.34237671 107.57128906 C-33.30820024 102.6019276 -31.26246497 97.63731933 -29.21875 92.671875 C-28.79563034 91.64300171 -28.37251068 90.61412842 -27.93656921 89.55407715 C-23.4851144 78.73485792 -18.99376086 67.93234131 -14.49331665 57.13342285 C-13.63355305 55.07034386 -12.77414833 53.00711526 -11.91513062 50.94372559 C-11.09911522 48.98365063 -10.28259596 47.02378537 -9.4655304 45.06414795 C-8.69626647 43.21791454 -7.92870105 41.3709723 -7.16300964 39.52325439 C-5.50776026 35.541768 -3.82796322 31.58154793 -2.02587891 27.6640625 C-1.731595 27.0153418 -1.4373111 26.36662109 -1.1341095 25.69824219 C-0.36683838 24.01952666 0.41864912 22.34916875 1.20581055 20.6796875 C2.26104682 18.06702245 2.26104682 18.06702245 1.24536133 15.78515625 C0.83439209 15.19605469 0.42342285 14.60695312 0 14 C-0.53625 13.195625 -1.0725 12.39125 -1.625 11.5625 C-6.6123116 6.18145328 -13.3030322 2.26744022 -20.671875 1.734375 C-22.03123669 1.72641776 -23.3907329 1.73209808 -24.75 1.75 C-25.45576172 1.75386719 -26.16152344 1.75773438 -26.88867188 1.76171875 C-32.1993602 1.84949872 -36.90930602 2.54551601 -42 4 C-42 3.01 -42 2.02 -42 1 C-40.10546779 0.35035977 -38.20931351 -0.29455115 -36.3125 -0.9375 C-34.72888672 -1.47697266 -34.72888672 -1.47697266 -33.11328125 -2.02734375 C-22.05735624 -5.48145332 -10.3000494 -5.55322948 0 0 Z " fill="#F8F8FA" transform="translate(197,158)"/>
<path d="M0 0 C2.9515323 3.73641019 4.63219382 7.63989237 6.3125 12.0625 C6.76653198 13.24102539 6.76653198 13.24102539 7.22973633 14.44335938 C9.72562957 21.0329871 11.86982735 27.71070994 13.93847656 34.44458008 C15.41231498 39.22265315 17.05605919 43.84643251 18.98828125 48.4609375 C20.35659869 51.8949388 21.56229792 55.37502048 22.75 58.875 C22.97308838 59.51856445 23.19617676 60.16212891 23.42602539 60.82519531 C24.52683006 64.11332441 25 66.47976965 25 70 C7.84 70 -9.32 70 -27 70 C-23.62428191 58.74760636 -23.62428191 58.74760636 -21.99462891 54.54125977 C-21.63059967 53.59650284 -21.26657043 52.65174591 -20.89151001 51.67835999 C-20.50707733 50.69266525 -20.12264465 49.70697052 -19.7265625 48.69140625 C-19.32094086 47.64403793 -18.91531921 46.59666962 -18.49740601 45.51756287 C-17.64367926 43.31592044 -16.78807001 41.11500714 -15.93066406 38.91479492 C-14.63079481 35.57737819 -13.33841227 32.237133 -12.046875 28.89648438 C-11.21138415 26.74461819 -10.37546082 24.59291987 -9.5390625 22.44140625 C-9.15867828 21.45773575 -8.77829407 20.47406525 -8.38638306 19.46058655 C-5.8103105 12.86684816 -2.99081941 6.41598227 0 0 Z " fill="#181756" transform="translate(205,185)"/>
<path d="M0 0 C0.33 0.66 0.66 1.32 1 2 C-1.97 2.66 -4.94 3.32 -8 4 C-8 3.01 -8 2.02 -8 1 C-3.375 -1.125 -3.375 -1.125 0 0 Z " fill="#D7D7DF" transform="translate(163,158)"/>
</svg>
